<svg width="498" height="361" viewBox="0 0 498 361" fill="none" xmlns="http://www.w3.org/2000/svg">
<path d="M155.312 165.014H60.5909C56.4406 165.014 53.0762 161.428 53.0762 157.004V68.8899C53.0762 64.466 56.4406 60.8799 60.5909 60.8799C64.7412 60.8799 68.1057 64.466 68.1057 68.8899V148.994H155.312C159.462 148.994 162.827 152.58 162.827 157.004C162.827 161.428 159.462 165.014 155.312 165.014Z" fill="#DCDDDD"/>
<path d="M346.697 16.1382V344.862C346.697 353.77 339.913 361 331.556 361H165.442C157.085 361 150.302 353.77 150.302 344.862V16.1382C150.302 7.23034 157.085 0 165.442 0H331.555C339.912 0 346.697 7.23138 346.697 16.1382Z" fill="#FF395E"/>
<path d="M237.477 344.863V16.1382C237.477 7.23034 244.26 0 252.617 0H165.442C157.085 0 150.302 7.23034 150.302 16.1382V344.862C150.302 353.77 157.085 361 165.442 361H252.617C244.26 361.001 237.477 353.77 237.477 344.863Z" fill="#B12E65"/>
<path d="M346.696 59.1592H150.302V292.645H346.696V59.1592Z" fill="#8ACAEB"/>
<path d="M237.477 59.1592H150.302V292.645H237.477V59.1592Z" fill="#8BB1EA"/>
<path d="M266.536 315.074C272.627 315.074 277.558 320.33 277.558 326.823C277.558 330.07 276.325 333.007 274.332 335.132C272.338 337.258 269.582 338.571 266.536 338.571H232.467C226.375 338.571 221.445 333.316 221.445 326.823C221.445 323.576 222.678 320.638 224.672 318.513C226.666 316.388 229.421 315.074 232.467 315.074H266.536Z" fill="#B12E65"/>
<path d="M264.532 38.9838H200.402C196.252 38.9838 192.888 35.3977 192.888 30.9739C192.888 26.55 196.252 22.9639 200.402 22.9639H264.532C268.682 22.9639 272.046 26.55 272.046 30.9739C272.046 35.3977 268.682 38.9838 264.532 38.9838Z" fill="#B12E65"/>
<path d="M298.6 38.9838H287.578C283.428 38.9838 280.063 35.3977 280.063 30.9739C280.063 26.55 283.428 22.9639 287.578 22.9639H298.6C302.751 22.9639 306.115 26.55 306.115 30.9739C306.115 35.3977 302.751 38.9838 298.6 38.9838Z" fill="#B12E65"/>
<path d="M420.843 280.363C419.057 280.363 417.265 279.689 415.831 278.319L288.575 186.466C286.967 184.931 286.056 182.729 286.076 180.429C286.095 178.127 287.041 175.945 288.674 174.441L413.926 85.7926C417.068 82.8991 421.813 83.2671 424.526 86.6127C427.241 89.9594 426.896 95.0188 423.757 97.9113L304.964 180.606L425.86 266.384C428.951 269.336 429.213 274.401 426.443 277.696C424.958 279.463 422.905 280.363 420.843 280.363Z" fill="#DCDDDD"/>
<path d="M248.499 245.651C284.47 245.651 313.63 214.569 313.63 176.228C313.63 137.887 284.47 106.805 248.499 106.805C212.528 106.805 183.368 137.887 183.368 176.228C183.368 214.569 212.528 245.651 248.499 245.651Z" fill="#7CA1D8"/>
<path d="M274.351 166.296C281.485 166.296 287.276 172.469 287.276 180.074C287.276 187.678 281.485 193.851 274.351 193.851H222.647C215.513 193.851 209.722 187.678 209.722 180.074C209.722 172.469 215.513 166.296 222.647 166.296H226.705C229.04 155.765 237.907 147.926 248.499 147.926C259.09 147.926 267.958 155.766 270.292 166.296H274.351Z" fill="white"/>
<path d="M453.911 233.369C449.761 233.369 446.396 229.783 446.396 225.359V138.847C446.396 134.423 449.761 130.837 453.911 130.837C458.062 130.837 461.426 134.423 461.426 138.847V225.359C461.426 229.783 458.062 233.369 453.911 233.369Z" fill="#DCDDDD"/>
<path d="M32.0645 283.567C27.9142 283.567 24.5498 279.981 24.5498 275.557V157.004C24.5498 152.58 27.9142 148.994 32.0645 148.994H60.1208C64.2711 148.994 67.6356 152.58 67.6356 157.004C67.6356 161.428 64.2711 165.014 60.1208 165.014H39.5793V275.557C39.5793 279.981 36.2149 283.567 32.0645 283.567Z" fill="#DCDDDD"/>
<path d="M32.0646 262.74C49.7698 262.74 64.1292 278.045 64.1292 296.918C64.1292 315.791 49.7708 331.096 32.0646 331.096C14.3583 331.096 0 315.79 0 296.918C0 278.046 14.3583 262.74 32.0646 262.74Z" fill="#7DBFEC"/>
<path d="M109.22 37.7556V67.9812C109.22 71.1319 106.815 73.6948 103.859 73.6948H5.36031C2.40441 73.6948 0 71.1319 0 67.9812V37.7556C0 34.6049 2.40441 32.042 5.36031 32.042H103.858C106.814 32.042 109.22 34.6049 109.22 37.7556Z" fill="#FF395E"/>
<path d="M453.911 138.847C478.261 138.847 498 117.807 498 91.8525C498 65.8984 478.261 44.8584 453.911 44.8584C429.562 44.8584 409.823 65.8984 409.823 91.8525C409.823 117.807 429.562 138.847 453.911 138.847Z" fill="#C5D65C"/>
<path d="M453.911 319.348C478.261 319.348 498 298.308 498 272.354C498 246.399 478.261 225.359 453.911 225.359C429.562 225.359 409.823 246.399 409.823 272.354C409.823 298.308 429.562 319.348 453.911 319.348Z" fill="#F3D064"/>
<path d="M468.942 86.1065C473.09 86.1065 476.457 89.6843 476.457 94.1164C476.457 98.5382 473.09 102.126 468.942 102.126H438.882C434.734 102.126 431.367 98.5382 431.367 94.1164C431.367 89.6843 434.734 86.1065 438.882 86.1065H441.237C442.599 79.9761 447.75 75.4258 453.912 75.4258C460.075 75.4258 465.225 79.9761 466.588 86.1065H468.942Z" fill="white"/>
<path d="M468.942 266.606C473.09 266.606 476.457 270.184 476.457 274.616C476.457 279.038 473.09 282.626 468.942 282.626H438.882C434.734 282.626 431.367 279.038 431.367 274.616C431.367 270.184 434.734 266.606 438.882 266.606H441.237C442.599 260.476 447.75 255.926 453.912 255.926C460.075 255.926 465.225 260.476 466.588 266.606H468.942Z" fill="white"/>
</svg>
