<svg width="440" height="362" viewBox="0 0 440 362" fill="none" xmlns="http://www.w3.org/2000/svg">
<path d="M440 16.8323V354.312C440 358.559 436.405 362 431.97 362H8.03C3.59477 362 0 358.559 0 354.312V16.8232C0 7.53291 7.86156 0.00585938 17.5648 0.00585938H422.435C432.13 0.00585938 440 7.54196 440 16.8323Z" fill="#DCF9F7"/>
<path d="M439.992 63.5049H226.764V106.324H439.992V63.5049Z" fill="#14C4BB"/>
<path d="M440 16.83V76.9551H0V16.83C0 7.53965 7.86672 0.00683594 17.5605 0.00683594H422.44C432.132 0.00683594 440 7.53965 440 16.83Z" fill="#B0D1CF"/>
<path d="M439.992 63.5049H226.764V76.9553H439.992V63.5049Z" fill="#00A094"/>
<path d="M233.4 0H220.12V361.995H233.4V0Z" fill="#B0D1CF"/>
<path d="M439.998 63.5072H0.00292969V16.826C0.00292969 7.53895 7.86621 0.0102539 17.566 0.0102539H422.435C432.135 0.0102539 439.998 7.53895 439.998 16.826V63.5072Z" fill="#5089DD"/>
<path d="M295.864 39.2892H59.0155C55.3477 39.2892 52.376 36.4431 52.376 32.9322C52.376 29.4205 55.3486 26.5752 59.0155 26.5752H295.864C299.532 26.5752 302.504 29.4213 302.504 32.9322C302.504 36.4431 299.531 39.2892 295.864 39.2892Z" fill="#DCF9F7"/>
<path d="M327.975 38.6679C324.308 38.6679 321.336 35.8218 321.336 32.3108V31.2066C321.336 27.6949 324.309 24.8496 327.975 24.8496C331.642 24.8496 334.615 27.6957 334.615 31.2066V32.3108C334.615 35.8218 331.642 38.6679 327.975 38.6679Z" fill="#14C4BB"/>
<path d="M354.479 38.6679C350.812 38.6679 347.84 35.8218 347.84 32.3108V31.2066C347.84 27.6949 350.812 24.8496 354.479 24.8496C358.147 24.8496 361.119 27.6957 361.119 31.2066V32.3108C361.119 35.8218 358.147 38.6679 354.479 38.6679Z" fill="#F96982"/>
<path d="M380.984 38.6679C377.316 38.6679 374.345 35.8218 374.345 32.3108V31.2066C374.345 27.6949 377.317 24.8496 380.984 24.8496C384.651 24.8496 387.624 27.6957 387.624 31.2066V32.3108C387.624 35.8218 384.652 38.6679 380.984 38.6679Z" fill="#F9B767"/>
<path d="M284.71 153.513H260.561C256.894 153.513 253.922 150.667 253.922 147.156C253.922 143.645 256.894 140.799 260.561 140.799H284.71C288.378 140.799 291.349 143.645 291.349 147.156C291.349 150.667 288.377 153.513 284.71 153.513Z" fill="#88A5A0"/>
<path d="M344.228 186.413H260.561C256.894 186.413 253.922 183.567 253.922 180.056C253.922 176.545 256.894 173.699 260.561 173.699H344.228C347.896 173.699 350.868 176.545 350.868 180.056C350.868 183.567 347.896 186.413 344.228 186.413Z" fill="#5089DD"/>
<path d="M398.732 209.677H260.561C256.894 209.677 253.922 206.831 253.922 203.32C253.922 199.809 256.894 196.963 260.561 196.963H398.732C402.4 196.963 405.371 199.809 405.371 203.32C405.371 206.831 402.399 209.677 398.732 209.677Z" fill="#5089DD"/>
<path d="M398.732 186.413H370.921C367.253 186.413 364.281 183.567 364.281 180.056C364.281 176.545 367.254 173.699 370.921 173.699H398.732C402.4 173.699 405.371 176.545 405.371 180.056C405.371 183.567 402.399 186.413 398.732 186.413Z" fill="#5089DD"/>
<path d="M284.71 264.16H260.561C256.894 264.16 253.922 261.314 253.922 257.803C253.922 254.292 256.894 251.446 260.561 251.446H284.71C288.378 251.446 291.349 254.292 291.349 257.803C291.349 261.315 288.377 264.16 284.71 264.16Z" fill="#88A5A0"/>
<path d="M344.228 297.062H260.561C256.894 297.062 253.922 294.216 253.922 290.705C253.922 287.194 256.894 284.348 260.561 284.348H344.228C347.896 284.348 350.868 287.194 350.868 290.705C350.868 294.216 347.896 297.062 344.228 297.062Z" fill="#88A5A0"/>
<path d="M398.732 320.324H260.561C256.894 320.324 253.922 317.478 253.922 313.967C253.922 310.456 256.894 307.61 260.561 307.61H398.732C402.4 307.61 405.371 310.456 405.371 313.967C405.371 317.478 402.399 320.324 398.732 320.324Z" fill="#88A5A0"/>
<path d="M398.732 297.063H370.921C367.253 297.063 364.281 294.217 364.281 290.706C364.281 287.195 367.254 284.349 370.921 284.349H398.732C402.4 284.349 405.371 287.195 405.371 290.706C405.371 294.217 402.399 297.063 398.732 297.063Z" fill="#5089DD"/>
<path d="M90.0946 278.912C86.4268 278.912 83.4551 276.066 83.4551 272.555V271.483C83.4551 267.971 86.4277 265.126 90.0946 265.126C93.7624 265.126 96.7341 267.972 96.7341 271.483V272.555C96.7341 276.067 93.7624 278.912 90.0946 278.912Z" fill="#5089DD"/>
<path d="M115.837 278.912C112.169 278.912 109.197 276.066 109.197 272.555V271.483C109.197 267.971 112.17 265.126 115.837 265.126C119.504 265.126 122.476 267.972 122.476 271.483V272.555C122.476 276.067 119.504 278.912 115.837 278.912Z" fill="#5089DD"/>
<path d="M141.576 278.912C137.908 278.912 134.937 276.066 134.937 272.555V271.483C134.937 267.971 137.909 265.126 141.576 265.126C145.244 265.126 148.216 267.972 148.216 271.483V272.555C148.216 276.067 145.244 278.912 141.576 278.912Z" fill="#5089DD"/>
<path d="M72.0289 309.708H58.2626C54.5948 309.708 51.623 306.862 51.623 303.351V238.928C51.623 235.417 54.5956 232.571 58.2626 232.571H72.0289C75.6967 232.571 78.6684 235.417 78.6684 238.928C78.6684 242.44 75.6959 245.285 72.0289 245.285H64.9021V296.992H72.0289C75.6967 296.992 78.6684 299.838 78.6684 303.349C78.6684 306.86 75.6959 309.708 72.0289 309.708Z" fill="#5089DD"/>
<path d="M173.409 309.707H159.642C155.975 309.707 153.003 306.861 153.003 303.35C153.003 299.839 155.976 296.993 159.642 296.993H166.769V245.286H159.642C155.975 245.286 153.003 242.44 153.003 238.929C153.003 235.418 155.976 232.572 159.642 232.572H173.409C177.077 232.572 180.048 235.418 180.048 238.929V303.351C180.048 306.862 177.076 309.707 173.409 309.707Z" fill="#5089DD"/>
<path d="M65.0718 138.385C63.3728 138.385 61.673 137.764 60.3762 136.523C57.7835 134.04 57.7835 130.016 60.3762 127.532L70.2135 118.113C72.8071 115.632 77.0103 115.632 79.6047 118.113C82.1974 120.596 82.1974 124.621 79.6047 127.105L69.7674 136.523C68.4706 137.765 66.7708 138.385 65.0718 138.385Z" fill="#5089DD"/>
<path d="M90.1177 138.385C88.4187 138.385 86.7189 137.764 85.4221 136.523C82.8294 134.04 82.8294 130.016 85.4221 127.532L95.2594 118.113C97.8529 115.632 102.056 115.632 104.651 118.113C107.243 120.596 107.243 124.621 104.651 127.105L94.8133 136.523C93.5165 137.765 91.8167 138.385 90.1177 138.385Z" fill="#5089DD"/>
<path d="M131.716 202.194C130.017 202.194 128.318 201.573 127.021 200.332C124.428 197.849 124.428 193.824 127.021 191.34L136.858 181.922C139.452 179.44 143.655 179.44 146.249 181.922C148.842 184.405 148.842 188.429 146.249 190.913L136.412 200.332C135.114 201.573 133.414 202.194 131.716 202.194Z" fill="#5089DD"/>
<path d="M156.762 202.194C155.063 202.194 153.363 201.573 152.067 200.332C149.474 197.849 149.474 193.824 152.067 191.34L161.904 181.922C164.497 179.44 168.701 179.44 171.295 181.922C173.888 184.405 173.888 188.429 171.295 190.913L161.458 200.332C160.161 201.573 158.461 202.194 156.762 202.194Z" fill="#5089DD"/>
<path d="M115.836 179.602C104.098 179.602 94.5498 170.46 94.5498 159.222C94.5498 147.984 104.098 138.842 115.836 138.842C127.572 138.842 137.121 147.984 137.121 159.222C137.121 170.46 127.572 179.602 115.836 179.602ZM115.836 151.557C111.421 151.557 107.83 154.996 107.83 159.223C107.83 163.45 111.421 166.888 115.836 166.888C120.249 166.888 123.841 163.45 123.841 159.223C123.841 154.996 120.249 151.557 115.836 151.557Z" fill="#88A5A0"/>
</svg>
